<?xml version="1.0" encoding="UTF-8"?>
<svg id="Ebene_1" xmlns="http://www.w3.org/2000/svg" width="392.4mm" height="466.2mm" version="1.1" viewBox="0 0 1112.2 1321.5">
  <path d="M811.3,1068.9c153.1-70.3,300.9-225.3,300.9-507.8C1112.2-3.2,559-9.7,488.8,2.7c164.2,63.1,285.8,255.5,285.8,558.4s-129.4,516.3-281.8,564.3c11.2,7.9,206.3,298.2,573.5,157.7-160.9-66.3-222.7-148.5-254.9-214.2Z" fill="#00137b" fill-rule="evenodd"/>
  <path d="M416.5,197.8c-67,57.2-128.1,197.7-128.1,367.2s61.1,310.1,128.1,367.2C292.3,1071.6,0,919.8,0,562.4S291,58.6,416.5,197.8" fill="#25c663" fill-rule="evenodd"/>
</svg>